<?xml version="1.0" encoding="UTF-8"?>
<!DOCTYPE svg PUBLIC "-//W3C//DTD SVG 1.1//EN" "http://www.w3.org/Graphics/SVG/1.1/DTD/svg11.dtd">
<svg xmlns="http://www.w3.org/2000/svg" version="1.1" width="404px" height="205px" style="shape-rendering:geometricPrecision; text-rendering:geometricPrecision; image-rendering:optimizeQuality; fill-rule:evenodd; clip-rule:evenodd" xmlns:xlink="http://www.w3.org/1999/xlink">
<g><path style="opacity:0.043" fill="#f7dbbd" d="M 342.5,11.5 C 337.844,10.2958 333.177,10.2958 328.5,11.5C 333.184,8.92391 337.851,8.92391 342.5,11.5 Z"/></g>
<g><path style="opacity:0.122" fill="#f3ceae" d="M 342.5,11.5 C 346.429,12.4308 349.095,14.7641 350.5,18.5C 348.427,16.4202 346.093,14.7536 343.5,13.5C 343.167,12.8333 342.833,12.1667 342.5,11.5 Z"/></g>
<g><path style="opacity:0.278" fill="#edbb99" d="M 325.5,13.5 C 323.878,16.4549 321.878,19.1215 319.5,21.5C 320.353,17.9796 322.353,15.3129 325.5,13.5 Z"/></g>
<g><path style="opacity:0.851" fill="#c9672c" d="M 342.5,11.5 C 342.833,12.1667 343.167,12.8333 343.5,13.5C 338.12,12.0053 332.787,12.1719 327.5,14C 320.198,21.8672 319.532,30.3672 325.5,39.5C 322.438,38.7322 320.772,36.7322 320.5,33.5C 319.756,29.8815 319.423,26.2148 319.5,22.5C 319.5,22.1667 319.5,21.8333 319.5,21.5C 321.878,19.1215 323.878,16.4549 325.5,13.5C 325.973,12.0937 326.973,11.427 328.5,11.5C 333.177,10.2958 337.844,10.2958 342.5,11.5 Z"/></g>
<g><path style="opacity:0.878" fill="#c75e19" d="M 343.5,13.5 C 346.093,14.7536 348.427,16.4202 350.5,18.5C 351.314,23.1191 351.647,27.7858 351.5,32.5C 351.167,32.5 350.833,32.5 350.5,32.5C 350.575,28.1033 350.075,23.77 349,19.5C 346.747,17.8115 344.914,15.8115 343.5,13.5 Z"/></g>
<g><path style="opacity:0.118" fill="#f7cca8" d="M 319.5,22.5 C 319.423,26.2148 319.756,29.8815 320.5,33.5C 319.003,31.7103 318.336,29.5437 318.5,27C 318.508,25.2933 318.842,23.7933 319.5,22.5 Z"/></g>
<g><path style="opacity:1" fill="#f56103" d="M 343.5,13.5 C 344.914,15.8115 346.747,17.8115 349,19.5C 350.075,23.77 350.575,28.1033 350.5,32.5C 348.282,36.0401 345.282,38.8735 341.5,41C 339.667,41.1667 337.833,41.3333 336,41.5C 332.458,40.8866 328.958,40.2199 325.5,39.5C 319.532,30.3672 320.198,21.8672 327.5,14C 332.787,12.1719 338.12,12.0053 343.5,13.5 Z"/></g>
<g><path style="opacity:0.424" fill="#e0a97c" d="M 350.5,18.5 C 353.745,23.0231 354.078,27.6898 351.5,32.5C 351.647,27.7858 351.314,23.1191 350.5,18.5 Z"/></g>
<g><path style="opacity:0.808" fill="#c9733c" d="M 350.5,32.5 C 350.833,32.5 351.167,32.5 351.5,32.5C 347.857,41.4905 341.19,44.9905 331.5,43C 328.975,42.5762 326.975,41.4095 325.5,39.5C 328.958,40.2199 332.458,40.8866 336,41.5C 337.833,41.3333 339.667,41.1667 341.5,41C 345.282,38.8735 348.282,36.0401 350.5,32.5 Z"/></g>
<g><path style="opacity:0.975" fill="#0f1010" d="M 112.5,85.5 C 111.735,85.9234 110.902,86.2568 110,86.5C 107.844,85.0149 105.677,83.5149 103.5,82C 102.207,81.51 100.873,81.3433 99.5,81.5C 93.1897,76.5799 86.1897,75.4133 78.5,78C 76.3825,79.0491 74.7158,80.5491 73.5,82.5C 72.0598,83.9461 71.3932,85.7794 71.5,88C 71.5143,89.3847 71.8476,90.5514 72.5,91.5C 74.4834,94.2611 76.6501,96.9278 79,99.5C 79.3333,99.1667 79.6667,98.8333 80,98.5C 88.0047,103.778 96.1714,108.778 104.5,113.5C 104.973,114.906 105.973,115.573 107.5,115.5C 109.906,116.712 112.239,118.546 114.5,121C 109.167,126.333 103.833,131.667 98.5,137C 96.9176,136.807 95.5843,135.974 94.5,134.5C 94.0269,133.094 93.0269,132.427 91.5,132.5C 91.1667,131.5 90.5,130.833 89.5,130.5C 82.5118,128.341 76.5118,125.341 71.5,121.5C 71.0269,120.094 70.0269,119.427 68.5,119.5C 65.2433,118.238 62.5767,116.238 60.5,113.5C 59.8333,112.167 58.8333,111.167 57.5,110.5C 56.6618,110.158 56.3284,109.492 56.5,108.5C 56.1667,107.5 55.5,106.833 54.5,106.5C 44.357,84.884 49.6904,68.384 70.5,57C 91.6931,51.2253 109.693,56.7253 124.5,73.5C 120.897,77.954 116.897,81.954 112.5,85.5 Z"/></g>
<g><path style="opacity:0.977" fill="#0e0e0e" d="M 267.5,108.5 C 267.741,106.102 267.074,104.102 265.5,102.5C 265.737,101.209 265.404,100.209 264.5,99.5C 250.961,78.7093 232.294,72.5426 208.5,81C 203.955,83.766 199.622,86.766 195.5,90C 166.726,118.109 138.06,146.109 109.5,174C 89.5822,185.779 70.2488,184.779 51.5,171C 48.4489,168.286 45.7822,165.286 43.5,162C 47.6968,156.466 52.0301,150.966 56.5,145.5C 57.2565,144.227 57.9232,144.227 58.5,145.5C 59.5,147.167 60.8333,148.5 62.5,149.5C 63.3065,150.728 64.3065,151.728 65.5,152.5C 65.9731,153.906 66.9731,154.573 68.5,154.5C 70.3684,155.263 72.0351,156.263 73.5,157.5C 75.1016,159.074 77.1016,159.741 79.5,159.5C 84.8053,159.677 89.8053,158.51 94.5,156C 121.982,129.019 149.649,102.185 177.5,75.5C 179.19,75.1436 180.19,74.1436 180.5,72.5C 206.998,50.1041 234.331,47.9374 262.5,66C 264,67.5 265.5,69 267,70.5C 267.499,66.1794 267.666,61.8461 267.5,57.5C 275.684,56.6731 283.517,56.3397 291,56.5C 292.675,70.5859 292.675,84.5859 291,98.5C 283.433,105.278 276.1,112.278 269,119.5C 267.892,115.914 267.392,112.247 267.5,108.5 Z"/></g>
<g><path style="opacity:0.163" fill="#e9a97d" d="M 324.5,57.5 C 324.666,64.8409 324.5,72.1742 324,79.5C 323.003,81.3231 321.836,82.9897 320.5,84.5C 319.609,85.1098 318.609,85.4431 317.5,85.5C 319.5,83.329 321.334,80.9957 323,78.5C 323.171,71.3213 323.671,64.3213 324.5,57.5 Z"/></g>
<g><path style="opacity:0.77" fill="#d97b43" d="M 342.5,94.5 C 339.833,95.1667 338.167,96.8333 337.5,99.5C 335.167,101.5 332.833,103.5 330.5,105.5C 330.351,104.448 330.517,103.448 331,102.5C 333.181,100.594 335.014,98.4277 336.5,96C 334.431,95.6758 334.098,94.8425 335.5,93.5C 337.326,93.0798 339.326,93.0798 341.5,93.5C 342.195,91.0219 343.695,89.0219 346,87.5C 346.5,77.8391 346.666,68.1724 346.5,58.5C 339.5,58.5 332.5,58.5 325.5,58.5C 325.666,66.1739 325.5,73.8406 325,81.5C 323.871,83.1412 322.371,84.1412 320.5,84.5C 321.836,82.9897 323.003,81.3231 324,79.5C 324.5,72.1742 324.666,64.8409 324.5,57.5C 332.235,56.1726 340.068,56.1726 348,57.5C 348.667,68.1667 348.667,78.8333 348,89.5C 346.296,91.3734 344.463,93.0401 342.5,94.5 Z"/></g>
<g><path style="opacity:0.69" fill="#7d7c7c" d="M 180.5,72.5 C 180.19,74.1436 179.19,75.1436 177.5,75.5C 177.81,73.8564 178.81,72.8564 180.5,72.5 Z"/></g>
<g><path style="opacity:0.882" fill="#3e3e3e" d="M 99.5,81.5 C 100.873,81.3433 102.207,81.51 103.5,82C 105.677,83.5149 107.844,85.0149 110,86.5C 110.902,86.2568 111.735,85.9234 112.5,85.5C 111.934,87.0783 110.934,88.4116 109.5,89.5C 105.804,87.121 102.47,84.4543 99.5,81.5 Z"/></g>
<g><path style="opacity:0.171" fill="#b8b8b8" d="M 73.5,82.5 C 72.8413,85.4552 72.5079,88.4552 72.5,91.5C 71.8476,90.5514 71.5143,89.3847 71.5,88C 71.3932,85.7794 72.0598,83.9461 73.5,82.5 Z"/></g>
<g><path style="opacity:0.878" fill="#cd6c2b" d="M 320.5,84.5 C 318.497,87.4975 315.83,89.8309 312.5,91.5C 312.5,91.1667 312.5,90.8333 312.5,90.5C 313.833,88.5 315.5,86.8333 317.5,85.5C 318.609,85.4431 319.609,85.1098 320.5,84.5 Z"/></g>
<g><path style="opacity:0.024" fill="#eeb592" d="M 342.5,94.5 C 341.167,96.5 339.5,98.1667 337.5,99.5C 338.167,96.8333 339.833,95.1667 342.5,94.5 Z"/></g>
<g><path style="opacity:0.004" fill="#c3c4c4" d="M 264.5,99.5 C 265.404,100.209 265.737,101.209 265.5,102.5C 264.733,101.828 264.066,100.995 263.5,100C 263.728,99.6012 264.062,99.4346 264.5,99.5 Z"/></g>
<g><path style="opacity:0.106" fill="#e0e0e0" d="M 265.5,102.5 C 267.074,104.102 267.741,106.102 267.5,108.5C 266.262,106.786 265.595,104.786 265.5,102.5 Z"/></g>
<g><path style="opacity:0.267" fill="#edb693" d="M 347.5,103.5 C 346.833,103.5 346.5,103.833 346.5,104.5C 344.427,106.58 342.093,108.246 339.5,109.5C 341.294,107.203 343.294,105.037 345.5,103C 346.437,102.308 347.103,102.475 347.5,103.5 Z"/></g>
<g><path style="opacity:0.271" fill="#d07b49" d="M 330.5,105.5 C 329.5,107.167 328.167,108.5 326.5,109.5C 326.167,106.5 327.5,105.167 330.5,105.5 Z"/></g>
<g><path style="opacity:0.004" fill="#c4c5c5" d="M 54.5,106.5 C 55.5,106.833 56.1667,107.5 56.5,108.5C 55.1667,108.5 54.5,107.833 54.5,106.5 Z"/></g>
<g><path style="opacity:0.871" fill="#dd7a3f" d="M 326.5,109.5 C 324.833,111.833 322.833,113.833 320.5,115.5C 320.5,113.833 320.5,112.167 320.5,110.5C 322.5,110.167 324.5,109.833 326.5,109.5 Z"/></g>
<g><path style="opacity:0.004" fill="#e7e7e7" d="M 57.5,110.5 C 58.8333,111.167 59.8333,112.167 60.5,113.5C 58.5,113.5 57.5,112.5 57.5,110.5 Z"/></g>
<g><path style="opacity:0.463" fill="#dfa578" d="M 339.5,109.5 C 338.925,111.411 337.925,113.078 336.5,114.5C 335.833,114.5 335.167,114.5 334.5,114.5C 335.833,112.5 337.5,110.833 339.5,109.5 Z"/></g>
<g><path style="opacity:0.004" fill="#e8e7e5" d="M 104.5,113.5 C 106.027,113.427 107.027,114.094 107.5,115.5C 105.973,115.573 104.973,114.906 104.5,113.5 Z"/></g>
<g><path style="opacity:0.992" fill="#de854e" d="M 320.5,115.5 C 315.833,120.833 310.833,125.833 305.5,130.5C 305.5,129.167 305.5,127.833 305.5,126.5C 309.161,126.65 310.161,125.15 308.5,122C 313.467,122.534 315.467,120.367 314.5,115.5C 316.5,115.5 318.5,115.5 320.5,115.5 Z"/></g>
<g><path style="opacity:1" fill="#f56003" d="M 330.5,105.5 C 327.5,105.167 326.167,106.5 326.5,109.5C 324.5,109.833 322.5,110.167 320.5,110.5C 320.5,112.167 320.5,113.833 320.5,115.5C 318.5,115.5 316.5,115.5 314.5,115.5C 315.467,120.367 313.467,122.534 308.5,122C 310.161,125.15 309.161,126.65 305.5,126.5C 305.5,127.833 305.5,129.167 305.5,130.5C 303.847,130.66 302.514,131.326 301.5,132.5C 297.61,134.715 294.276,137.715 291.5,141.5C 290.501,153.482 290.168,165.482 290.5,177.5C 283.5,177.5 276.5,177.5 269.5,177.5C 269.813,173.958 269.479,170.625 268.5,167.5C 266.737,166.046 265.403,166.38 264.5,168.5C 262.801,168.34 261.134,168.506 259.5,169C 259.833,169.333 260.167,169.667 260.5,170C 257.691,170.312 256.024,171.812 255.5,174.5C 251.609,175.502 247.609,176.335 243.5,177C 242.328,177.419 241.328,178.085 240.5,179C 229.185,180.788 217.852,180.955 206.5,179.5C 206.167,179.5 205.833,179.5 205.5,179.5C 201.345,176.159 196.845,173.159 192,170.5C 189.846,169.726 187.679,169.059 185.5,168.5C 184.167,166.833 182.833,165.167 181.5,163.5C 181.249,161.83 180.582,160.33 179.5,159C 180.672,158.581 181.672,157.915 182.5,157C 180.527,156.505 178.527,156.338 176.5,156.5C 176.399,153.551 176.399,150.551 176.5,147.5C 171.872,144.254 171.206,140.254 174.5,135.5C 175.76,137.353 175.76,139.186 174.5,141C 176.681,143.078 178.681,142.911 180.5,140.5C 181.696,140.846 181.696,141.346 180.5,142C 183.007,144.485 184.507,143.985 185,140.5C 186,141.833 187,141.833 188,140.5C 188.471,143.471 189.638,146.138 191.5,148.5C 192.002,149.521 192.668,149.688 193.5,149C 192.226,148.023 192.226,147.189 193.5,146.5C 195.167,147.167 196.833,147.833 198.5,148.5C 199.55,152.537 202.217,154.537 206.5,154.5C 207.911,156.539 209.911,157.539 212.5,157.5C 212.611,158.117 212.944,158.617 213.5,159C 220.118,160.378 226.785,160.711 233.5,160C 235.653,159.901 237.319,159.067 238.5,157.5C 242.222,157.139 245.222,155.472 247.5,152.5C 250.731,150.78 253.564,148.447 256,145.5C 256.333,145.833 256.667,146.167 257,146.5C 258.892,143.135 261.392,139.802 264.5,136.5C 266.19,136.144 267.19,135.144 267.5,133.5C 282.48,119.522 297.48,105.522 312.5,91.5C 315.83,89.8309 318.497,87.4975 320.5,84.5C 322.371,84.1412 323.871,83.1412 325,81.5C 325.5,73.8406 325.666,66.1739 325.5,58.5C 332.5,58.5 339.5,58.5 346.5,58.5C 346.666,68.1724 346.5,77.8391 346,87.5C 343.695,89.0219 342.195,91.0219 341.5,93.5C 339.326,93.0798 337.326,93.0798 335.5,93.5C 334.098,94.8425 334.431,95.6758 336.5,96C 335.014,98.4277 333.181,100.594 331,102.5C 330.517,103.448 330.351,104.448 330.5,105.5 Z"/></g>
<g><path style="opacity:0.224" fill="#f5cea5" d="M 334.5,114.5 C 331.575,118.091 328.242,121.425 324.5,124.5C 326.812,120.188 330.145,116.855 334.5,114.5 Z"/></g>
<g><path style="opacity:0.2" fill="#a6a5a4" d="M 68.5,119.5 C 70.0269,119.427 71.0269,120.094 71.5,121.5C 69.9731,121.573 68.9731,120.906 68.5,119.5 Z"/></g>
<g><path style="opacity:0.302" fill="#edb68c" d="M 312.5,90.5 C 312.5,90.8333 312.5,91.1667 312.5,91.5C 297.48,105.522 282.48,119.522 267.5,133.5C 281.585,118.079 296.585,103.745 312.5,90.5 Z"/></g>
<g><path style="opacity:0.408" fill="#e1a67d" d="M 185.5,122.5 C 184.835,120.631 184.169,118.631 183.5,116.5C 182.893,116.624 182.56,116.957 182.5,117.5C 176.535,122.964 170.702,128.63 165,134.5C 164.333,136.167 164.333,137.833 165,139.5C 166.467,142.758 167.633,146.092 168.5,149.5C 165.18,145.041 163.347,140.041 163,134.5C 169.5,128 176,121.5 182.5,115C 183.449,114.383 184.282,114.549 185,115.5C 185.497,117.81 185.663,120.143 185.5,122.5 Z"/></g>
<g><path style="opacity:0.004" fill="#c1c1bf" d="M 89.5,130.5 C 90.5,130.833 91.1667,131.5 91.5,132.5C 90.1667,132.5 89.5,131.833 89.5,130.5 Z"/></g>
<g><path style="opacity:0.792" fill="#cf773f" d="M 182.5,117.5 C 182.56,116.957 182.893,116.624 183.5,116.5C 184.169,118.631 184.835,120.631 185.5,122.5C 187.176,132.519 191.509,141.186 198.5,148.5C 196.833,147.833 195.167,147.167 193.5,146.5C 187.119,137.788 183.452,128.122 182.5,117.5 Z"/></g>
<g><path style="opacity:1" fill="#f06107" d="M 182.5,117.5 C 183.452,128.122 187.119,137.788 193.5,146.5C 192.226,147.189 192.226,148.023 193.5,149C 192.668,149.688 192.002,149.521 191.5,148.5C 189.638,146.138 188.471,143.471 188,140.5C 187,141.833 186,141.833 185,140.5C 184.507,143.985 183.007,144.485 180.5,142C 181.696,141.346 181.696,140.846 180.5,140.5C 178.681,142.911 176.681,143.078 174.5,141C 175.76,139.186 175.76,137.353 174.5,135.5C 171.206,140.254 171.872,144.254 176.5,147.5C 176.399,150.551 176.399,153.551 176.5,156.5C 178.527,156.338 180.527,156.505 182.5,157C 181.672,157.915 180.672,158.581 179.5,159C 180.582,160.33 181.249,161.83 181.5,163.5C 180.833,163.5 180.167,163.5 179.5,163.5C 178.833,160.833 177.167,159.167 174.5,158.5C 174.573,156.973 173.906,155.973 172.5,155.5C 172.155,152.802 170.822,150.802 168.5,149.5C 167.633,146.092 166.467,142.758 165,139.5C 164.333,137.833 164.333,136.167 165,134.5C 170.702,128.63 176.535,122.964 182.5,117.5 Z"/></g>
<g><path style="opacity:0.22" fill="#a9aaa8" d="M 91.5,132.5 C 93.0269,132.427 94.0269,133.094 94.5,134.5C 92.9731,134.573 91.9731,133.906 91.5,132.5 Z"/></g>
<g><path style="opacity:0.012" fill="#efc4a3" d="M 305.5,130.5 C 303.431,133.573 300.764,135.906 297.5,137.5C 298.833,135.833 300.167,134.167 301.5,132.5C 302.514,131.326 303.847,130.66 305.5,130.5 Z"/></g>
<g><path style="opacity:0.157" fill="#f5c6a5" d="M 267.5,133.5 C 267.19,135.144 266.19,136.144 264.5,136.5C 264.81,134.856 265.81,133.856 267.5,133.5 Z"/></g>
<g><path style="opacity:0.265" fill="#f4be9c" d="M 324.5,124.5 C 324.5,142.5 324.5,160.5 324.5,178.5C 323.659,165.168 322.992,151.668 322.5,138C 322.366,133.242 323.032,128.742 324.5,124.5 Z"/></g>
<g><path style="opacity:0.857" fill="#cd723a" d="M 347.5,103.5 C 348.663,128.33 348.83,153.33 348,178.5C 340.068,179.827 332.235,179.827 324.5,178.5C 324.5,160.5 324.5,142.5 324.5,124.5C 328.242,121.425 331.575,118.091 334.5,114.5C 335.167,114.5 335.833,114.5 336.5,114.5C 333.259,118.245 329.759,121.911 326,125.5C 325.5,142.83 325.333,160.163 325.5,177.5C 332.5,177.5 339.5,177.5 346.5,177.5C 346.5,153.167 346.5,128.833 346.5,104.5C 346.5,103.833 346.833,103.5 347.5,103.5 Z"/></g>
<g><path style="opacity:0.114" fill="#e2e2e1" d="M 58.5,145.5 C 60.8333,145.833 62.1667,147.167 62.5,149.5C 60.8333,148.5 59.5,147.167 58.5,145.5 Z"/></g>
<g><path style="opacity:0.235" fill="#e8b087" d="M 264.5,136.5 C 261.392,139.802 258.892,143.135 257,146.5C 256.667,146.167 256.333,145.833 256,145.5C 253.564,148.447 250.731,150.78 247.5,152.5C 252.911,146.751 258.578,141.418 264.5,136.5 Z"/></g>
<g><path style="opacity:0.004" fill="#cdcdcd" d="M 65.5,152.5 C 67.0269,152.427 68.0269,153.094 68.5,154.5C 66.9731,154.573 65.9731,153.906 65.5,152.5 Z"/></g>
<g><path style="opacity:0.875" fill="#dd9064" d="M 198.5,148.5 C 201.205,150.512 203.872,152.512 206.5,154.5C 202.217,154.537 199.55,152.537 198.5,148.5 Z"/></g>
<g><path style="opacity:0.31" fill="#f1c69e" d="M 168.5,149.5 C 170.822,150.802 172.155,152.802 172.5,155.5C 170.178,154.198 168.845,152.198 168.5,149.5 Z"/></g>
<g><path style="opacity:0.322" fill="#e9af88" d="M 247.5,152.5 C 245.222,155.472 242.222,157.139 238.5,157.5C 241.299,155.597 244.299,153.931 247.5,152.5 Z"/></g>
<g><path style="opacity:0.098" fill="#ebbb91" d="M 206.5,154.5 C 208.819,154.992 210.819,155.992 212.5,157.5C 209.911,157.539 207.911,156.539 206.5,154.5 Z"/></g>
<g><path style="opacity:0.016" fill="#fad9b7" d="M 172.5,155.5 C 173.906,155.973 174.573,156.973 174.5,158.5C 173.094,158.027 172.427,157.027 172.5,155.5 Z"/></g>
<g><path style="opacity:0.149" fill="#d4d2d3" d="M 73.5,157.5 C 75.7857,157.595 77.7857,158.262 79.5,159.5C 77.1016,159.741 75.1016,159.074 73.5,157.5 Z"/></g>
<g><path style="opacity:0.376" fill="#e7ab7f" d="M 174.5,158.5 C 177.167,159.167 178.833,160.833 179.5,163.5C 177.5,162.167 175.833,160.5 174.5,158.5 Z"/></g>
<g><path style="opacity:0.271" fill="#df9f70" d="M 212.5,157.5 C 221.174,160.165 229.84,160.165 238.5,157.5C 237.319,159.067 235.653,159.901 233.5,160C 226.785,160.711 220.118,160.378 213.5,159C 212.944,158.617 212.611,158.117 212.5,157.5 Z"/></g>
<g><path style="opacity:0.339" fill="#ce7942" d="M 301.5,132.5 C 300.167,134.167 298.833,135.833 297.5,137.5C 296.207,139.296 294.707,140.963 293,142.5C 292.938,154.57 292.272,166.57 291,178.5C 283.402,179.827 275.902,179.827 268.5,178.5C 268.5,174.833 268.5,171.167 268.5,167.5C 269.479,170.625 269.813,173.958 269.5,177.5C 276.5,177.5 283.5,177.5 290.5,177.5C 290.168,165.482 290.501,153.482 291.5,141.5C 294.276,137.715 297.61,134.715 301.5,132.5 Z"/></g>
<g><path style="opacity:0.337" fill="#e6ad84" d="M 179.5,163.5 C 180.167,163.5 180.833,163.5 181.5,163.5C 182.833,165.167 184.167,166.833 185.5,168.5C 182.911,167.581 180.911,165.914 179.5,163.5 Z"/></g>
<g><path style="opacity:1" fill="#f56003" d="M 346.5,104.5 C 346.5,128.833 346.5,153.167 346.5,177.5C 339.5,177.5 332.5,177.5 325.5,177.5C 325.333,160.163 325.5,142.83 326,125.5C 329.759,121.911 333.259,118.245 336.5,114.5C 337.925,113.078 338.925,111.411 339.5,109.5C 342.093,108.246 344.427,106.58 346.5,104.5 Z"/></g>
<g><path style="opacity:0.192" fill="#de9d71" d="M 268.5,167.5 C 268.5,171.167 268.5,174.833 268.5,178.5C 267.521,175.375 267.187,172.042 267.5,168.5C 266.5,168.5 265.5,168.5 264.5,168.5C 265.403,166.38 266.737,166.046 268.5,167.5 Z"/></g>
<g><path style="opacity:0.898" fill="#d76f35" d="M 185.5,168.5 C 187.679,169.059 189.846,169.726 192,170.5C 196.845,173.159 201.345,176.159 205.5,179.5C 197.893,177.367 191.226,173.7 185.5,168.5 Z"/></g>
<g><path style="opacity:0.231" fill="#cc6e36" d="M 264.5,168.5 C 262.025,171.241 259.025,173.241 255.5,174.5C 256.024,171.812 257.691,170.312 260.5,170C 260.167,169.667 259.833,169.333 259.5,169C 261.134,168.506 262.801,168.34 264.5,168.5 Z"/></g>
<g><path style="opacity:0.513" fill="#cb6b32" d="M 255.5,174.5 C 239.784,182.507 223.451,184.173 206.5,179.5C 217.852,180.955 229.185,180.788 240.5,179C 241.328,178.085 242.328,177.419 243.5,177C 247.609,176.335 251.609,175.502 255.5,174.5 Z"/></g>
</svg>
